<svg width="102.000000" height="102.000000" viewBox="0 0 102 102" fill="none" xmlns="http://www.w3.org/2000/svg" xmlns:xlink="http://www.w3.org/1999/xlink">
	<desc>
			Created with Pixso.
	</desc>
	<defs>
		<linearGradient id="paint_linear_15_394_0" x1="50.997875" y1="0.000000" x2="50.997875" y2="101.375252" gradientUnits="userSpaceOnUse">
			<stop stop-color="#5FC9F3"/>
			<stop offset="1.000000" stop-color="#55ABF5"/>
		</linearGradient>
	</defs>
	<path id="Vector" d="M101.99 51C101.99 22.83 79.16 0 50.99 0C22.83 0 0 22.83 0 51C0 76.44 18.64 97.54 43.02 101.37L43.02 65.73L30.08 65.73L30.08 50.99L43.02 50.99L43.02 39.76C43.02 26.97 50.64 19.91 62.28 19.91C67.86 19.91 73.7 20.91 73.7 20.91L73.7 33.46L67.27 33.46C60.94 33.46 58.96 37.39 58.96 41.42L58.96 51L73.11 51L70.85 65.74L58.96 65.74L58.96 101.37C83.34 97.55 101.99 76.45 101.99 51L101.99 51Z" fill="url(#paint_linear_15_394_0)" fill-opacity="1.000000" fill-rule="nonzero"/>
</svg>
