<svg width="26.000000" height="25.000000" viewBox="0 0 26 25" fill="none" xmlns="http://www.w3.org/2000/svg" xmlns:xlink="http://www.w3.org/1999/xlink">
	<desc>
			Created with Pixso.
	</desc>
	<defs/>
	<path id="Vector" d="M16.66 -0.75L8.83 -0.75C1.69 -0.75 0 0.94 0 8.08L0 15.91C0 23.05 1.69 24.75 8.83 24.75L16.66 24.75C23.8 24.75 25.5 23.05 25.5 15.91L25.5 8.08C25.5 0.94 23.79 -0.75 16.66 -0.75ZM20.58 17.44L18.73 17.44C18.03 17.44 17.81 16.88 16.55 15.6C15.45 14.54 14.97 14.4 14.7 14.4C14.32 14.4 14.21 14.51 14.21 15.03L14.21 16.7C14.21 17.15 14.07 17.42 12.88 17.42C10.92 17.42 8.74 16.23 7.21 14.02C4.91 10.78 4.28 8.35 4.28 7.85C4.28 7.58 4.39 7.33 4.91 7.33L6.76 7.33C7.23 7.33 7.41 7.54 7.59 8.04C8.51 10.69 10.04 13.01 10.67 13.01C10.9 13.01 11.01 12.9 11.01 12.31L11.01 9.57C10.94 8.31 10.27 8.21 10.27 7.76C10.27 7.54 10.45 7.32 10.74 7.32L13.65 7.32C14.05 7.32 14.19 7.54 14.19 8.01L14.19 11.7C14.19 12.09 14.37 12.24 14.48 12.24C14.71 12.24 14.91 12.09 15.34 11.66C16.68 10.17 17.63 7.86 17.63 7.86C17.76 7.59 17.97 7.34 18.44 7.34L20.29 7.34C20.85 7.34 20.98 7.63 20.85 8.03C20.62 9.11 18.35 12.31 18.35 12.31C18.15 12.63 18.08 12.78 18.35 13.14C18.55 13.41 19.2 13.96 19.63 14.47C20.42 15.37 21.03 16.12 21.19 16.65C21.37 17.17 21.1 17.44 20.58 17.44L20.58 17.44Z" fill="#FFFFFF" fill-opacity="1.000000" fill-rule="nonzero"/>
</svg>
