<svg width="26.000000" height="25.000000" viewBox="0 0 26 25" fill="none" xmlns="http://www.w3.org/2000/svg" xmlns:xlink="http://www.w3.org/1999/xlink">
	<desc>
			Created with Pixso.
	</desc>
	<defs/>
	<path id="Vector" d="M20.71 -0.75C22.03 -0.75 23.16 -0.29 24.09 0.65C25.03 1.58 25.5 2.71 25.5 4.03L25.5 19.96C25.5 21.28 25.03 22.41 24.09 23.34C23.16 24.28 22.03 24.75 20.71 24.75L17.59 24.75L17.59 14.87L20.9 14.87L21.39 11.02L17.59 11.02L17.59 8.56C17.59 7.94 17.72 7.47 17.98 7.16C18.24 6.85 18.75 6.7 19.5 6.7L21.53 6.68L21.53 3.25C20.83 3.15 19.84 3.1 18.57 3.1C17.07 3.1 15.86 3.54 14.96 4.42C14.06 5.31 13.61 6.56 13.61 8.18L13.61 11.02L10.29 11.02L10.29 14.87L13.61 14.87L13.61 24.75L4.78 24.75C3.46 24.75 2.33 24.28 1.4 23.34C0.46 22.41 0 21.28 0 19.96L0 4.03C0 2.71 0.46 1.58 1.4 0.65C2.33 -0.29 3.46 -0.75 4.78 -0.75L20.71 -0.75Z" fill="#FFFFFF" fill-opacity="1.000000" fill-rule="nonzero"/>
</svg>
