<svg width="18.000000" height="20.000000" viewBox="0 0 18 20" fill="none" xmlns="http://www.w3.org/2000/svg" xmlns:xlink="http://www.w3.org/1999/xlink">
	<desc>
			Created with Pixso.
	</desc>
	<defs/>
	<path id="Vector" d="M0 18.12C0 19.16 0.86 20 1.92 20L16.07 20C17.13 20 18 19.16 18 18.12L18 7.5L0 7.5L0 18.12ZM12.85 10.46C12.85 10.21 13.07 10 13.33 10L14.94 10C15.21 10 15.42 10.21 15.42 10.46L15.42 12.03C15.42 12.28 15.21 12.5 14.94 12.5L13.33 12.5C13.07 12.5 12.85 12.28 12.85 12.03L12.85 10.46ZM12.85 15.46C12.85 15.21 13.07 15 13.33 15L14.94 15C15.21 15 15.42 15.21 15.42 15.46L15.42 17.03C15.42 17.28 15.21 17.5 14.94 17.5L13.33 17.5C13.07 17.5 12.85 17.28 12.85 17.03L12.85 15.46ZM7.71 10.46C7.71 10.21 7.93 10 8.19 10L9.8 10C10.06 10 10.28 10.21 10.28 10.46L10.28 12.03C10.28 12.28 10.06 12.5 9.8 12.5L8.19 12.5C7.93 12.5 7.71 12.28 7.71 12.03L7.71 10.46ZM7.71 15.46C7.71 15.21 7.93 15 8.19 15L9.8 15C10.06 15 10.28 15.21 10.28 15.46L10.28 17.03C10.28 17.28 10.06 17.5 9.8 17.5L8.19 17.5C7.93 17.5 7.71 17.28 7.71 17.03L7.71 15.46ZM2.57 10.46C2.57 10.21 2.78 10 3.05 10L4.66 10C4.92 10 5.14 10.21 5.14 10.46L5.14 12.03C5.14 12.28 4.92 12.5 4.66 12.5L3.05 12.5C2.78 12.5 2.57 12.28 2.57 12.03L2.57 10.46ZM2.57 15.46C2.57 15.21 2.78 15 3.05 15L4.66 15C4.92 15 5.14 15.21 5.14 15.46L5.14 17.03C5.14 17.28 4.92 17.5 4.66 17.5L3.05 17.5C2.78 17.5 2.57 17.28 2.57 17.03L2.57 15.46ZM16.07 2.5L14.14 2.5L14.14 0.62C14.14 0.28 13.85 0 13.5 0L12.21 0C11.86 0 11.57 0.28 11.57 0.62L11.57 2.5L6.42 2.5L6.42 0.62C6.42 0.28 6.13 0 5.78 0L4.5 0C4.14 0 3.85 0.28 3.85 0.62L3.85 2.5L1.92 2.5C0.86 2.5 0 3.33 0 4.37L0 6.25L18 6.25L18 4.37C18 3.33 17.13 2.5 16.07 2.5Z" fill="#FFFFFF" fill-opacity="1.000000" fill-rule="nonzero"/>
</svg>
