<svg width="14.000000" height="21.000000" viewBox="0 0 14 21" fill="none" xmlns="http://www.w3.org/2000/svg" xmlns:xlink="http://www.w3.org/1999/xlink">
	<desc>
			Created with Pixso.
	</desc>
	<defs/>
	<path id="Vector" d="M9 0L2 0C1.46 0 0.96 0.21 0.58 0.58C0.21 0.96 0 1.46 0 2L0 16C0 16.53 0.21 17.03 0.58 17.41C0.96 17.78 1.46 18 2 18L5 18L5 21L7 20L9 21L9 18L12 18C12.53 18 13.03 17.78 13.41 17.41C13.78 17.03 14 16.53 14 16L14 5L9 0ZM9 13L9 15L7 14L5 15L5 13L3 12L5 11L5 9L7 10L9 9L9 11L11 12L9 13ZM8 6L8 1.5L12.5 6L8 6Z" fill="#FFFFFF" fill-opacity="1.000000" fill-rule="nonzero"/>
</svg>
