<svg width="97.000000" height="97.000000" viewBox="0 0 97 97" fill="none" xmlns="http://www.w3.org/2000/svg" xmlns:xlink="http://www.w3.org/1999/xlink">
	<desc>
			Created with Pixso.
	</desc>
	<defs>
		<linearGradient id="paint_linear_15_374_0" x1="48.000038" y1="-0.960449" x2="48.000038" y2="96.959557" gradientUnits="userSpaceOnUse">
			<stop stop-color="#5FC9F3"/>
			<stop offset="1.000000" stop-color="#55ABF5"/>
		</linearGradient>
	</defs>
	<path id="Vector" d="M48 -0.97C20.95 -0.97 -0.96 20.95 -0.96 47.99C-0.96 75.03 20.95 96.95 48 96.95C75.04 96.95 96.96 75.03 96.96 47.99C96.96 20.95 75.04 -0.97 48 -0.97ZM66.82 54.27C66.82 54.27 71.15 58.55 72.22 60.53C72.25 60.57 72.27 60.61 72.28 60.63C72.71 61.36 72.81 61.93 72.6 62.35C72.24 63.06 71.02 63.4 70.6 63.43L62.95 63.43C62.42 63.43 61.31 63.29 59.96 62.37C58.92 61.64 57.9 60.45 56.91 59.3C55.43 57.57 54.14 56.08 52.85 56.08C52.68 56.08 52.52 56.11 52.36 56.16C51.38 56.48 50.13 57.87 50.13 61.6C50.13 62.76 49.21 63.43 48.56 63.43L45.06 63.43C43.86 63.43 37.65 63.01 32.14 57.2C25.4 50.09 19.33 35.82 19.28 35.68C18.89 34.76 19.68 34.27 20.55 34.27L28.27 34.27C29.3 34.27 29.64 34.89 29.87 35.45C30.15 36.1 31.16 38.67 32.82 41.57C35.51 46.29 37.15 48.21 38.47 48.21C38.72 48.21 38.96 48.14 39.18 48.03C40.91 47.07 40.58 40.92 40.51 39.65C40.51 39.41 40.5 36.9 39.62 35.69C38.99 34.82 37.91 34.49 37.26 34.37C37.52 34 37.87 33.71 38.27 33.51C39.46 32.91 41.59 32.83 43.71 32.83L44.88 32.83C47.18 32.86 47.77 33.01 48.6 33.21C50.28 33.62 50.32 34.7 50.17 38.42C50.13 39.48 50.08 40.67 50.08 42.08C50.08 42.38 50.07 42.71 50.07 43.06C50.01 44.95 49.95 47.1 51.29 47.98C51.46 48.09 51.67 48.15 51.87 48.15C52.34 48.15 53.73 48.15 57.52 41.66C58.68 39.57 59.7 37.39 60.55 35.16C60.63 35.03 60.85 34.62 61.12 34.46C61.31 34.36 61.53 34.31 61.75 34.31L70.83 34.31C71.82 34.31 72.5 34.46 72.63 34.84C72.85 35.45 72.59 37.3 68.44 42.91L66.59 45.36C62.83 50.28 62.83 50.53 66.82 54.27Z" fill="url(#paint_linear_15_374_0)" fill-opacity="1.000000" fill-rule="nonzero"/>
</svg>
