<svg width="102.000000" height="102.000000" viewBox="0 0 102 102" fill="none" xmlns="http://www.w3.org/2000/svg" xmlns:xlink="http://www.w3.org/1999/xlink">
	<desc>
			Created with Pixso.
	</desc>
	<defs>
		<linearGradient id="paint_linear_15_405_0" x1="51.000000" y1="0.000000" x2="51.000000" y2="101.500000" gradientUnits="userSpaceOnUse">
			<stop stop-color="#5FC9F3"/>
			<stop offset="1.000000" stop-color="#55ABF5"/>
		</linearGradient>
	</defs>
	<path id="Vector" d="M1.32 62.23C0.45 58.38 0 54.48 0 50.59C0 22.65 22.72 0 50.79 0C54.57 0 58.37 0.45 62.01 1.24C33.92 11.89 11.81 34.21 1.32 62.23ZM90.77 19.37C87.65 15.4 84.01 11.96 79.89 9.1C45.83 19.14 19.26 45.83 9.38 79.79C12.22 83.89 15.75 87.86 19.67 90.89C29.48 56.61 56.37 29.33 90.77 19.37ZM94.37 76.62C97.83 70.93 100.15 64.45 101.08 57.86C83.01 67.58 68.07 82.92 58.37 100.97C65.2 99.98 71.78 97.51 77.63 93.88C85.6 96.85 93.78 99.39 102 101.5C99.88 93.23 97.35 84.62 94.37 76.62ZM101.13 43.65C100.54 39.24 99.33 34.89 97.53 30.79C66.14 41.16 41.43 66.26 31.21 97.64C35.33 99.37 39.63 100.48 44.1 101.09C54.64 75.24 75.24 54.23 101.13 43.65Z" fill="url(#paint_linear_15_405_0)" fill-opacity="1.000000" fill-rule="nonzero"/>
</svg>
