<svg width="20.000000" height="20.000000" viewBox="0 0 20 20" fill="none" xmlns="http://www.w3.org/2000/svg" xmlns:xlink="http://www.w3.org/1999/xlink">
	<desc>
			Created with Pixso.
	</desc>
	<defs>
		<clipPath id="clip2_85">
			<rect id="ICON" width="20.000000" height="20.000000" fill="white" fill-opacity="0"/>
		</clipPath>
	</defs>
	<rect id="ICON" width="20.000000" height="20.000000" fill="#FFFFFF" fill-opacity="0"/>
	<g clip-path="url(#clip2_85)">
		<path id="Vector" d="M16.9 2.21C16.06 2.03 15.45 1.04 14.64 0.86C13.83 0.69 12.83 1.32 12.01 1.14C11.58 0.99 11.12 0.93 10.67 0.98C10.22 1.03 9.78 1.18 9.4 1.42L9.34 13.33L9.16 14.16C8.86 15.51 9.72 16.85 11.07 17.15C12.41 17.44 13.75 16.59 14.05 15.24L14.22 14.4L19.16 3.56C18.91 3.18 18.58 2.86 18.18 2.63C17.79 2.39 17.35 2.25 16.9 2.21ZM12.42 14.88C12.32 15.34 11.87 15.63 11.41 15.54C10.95 15.44 10.65 15 10.75 14.52L11.47 11.25C11.51 11.03 11.64 10.85 11.82 10.72C12 10.6 12.21 10.55 12.43 10.59C12.64 10.63 12.83 10.75 12.96 10.92C13.09 11.1 13.14 11.31 13.11 11.53C13.11 11.56 13.1 11.59 13.1 11.62L12.42 14.88ZM8.1 16.95C7.77 16.44 7.56 15.87 7.5 15.28L6.86 12.5C6.75 12.05 7 11.6 7.5 11.46C7.56 11.45 7.62 11.45 7.68 11.46L7.68 2.02C6.92 2.02 6.01 1.54 5.31 1.71C4.61 1.88 3.9 2.86 3.1 3.04C2.17 3.13 1.34 3.62 0.83 4.39L5.77 15.23L5.95 16.06C6.09 16.71 6.48 17.27 7.04 17.63C7.6 17.99 8.27 18.11 8.92 17.97L9 17.97C8.65 17.68 8.33 17.34 8.1 16.95Z" fill="#FFFFFF" fill-opacity="1.000000" fill-rule="nonzero"/>
	</g>
</svg>
