<svg width="28.000000" height="27.000000" viewBox="0 0 28 27" fill="none" xmlns="http://www.w3.org/2000/svg" xmlns:xlink="http://www.w3.org/1999/xlink">
	<desc>
			Created with Pixso.
	</desc>
	<defs/>
	<path id="Vector" d="M13.7 8.57C11.16 8.57 9.09 10.56 9.09 13C9.09 15.43 11.16 17.42 13.7 17.42C16.24 17.42 18.31 15.43 18.31 13C18.31 10.56 16.24 8.57 13.7 8.57ZM27.53 13C27.53 11.16 27.55 9.35 27.44 7.52C27.33 5.39 26.83 3.51 25.21 1.95C23.59 0.39 21.63 -0.09 19.41 -0.19C17.5 -0.29 15.61 -0.28 13.71 -0.28C11.8 -0.28 9.91 -0.29 8 -0.19C5.79 -0.09 3.82 0.4 2.2 1.95C0.58 3.51 0.08 5.39 -0.03 7.52C-0.13 9.35 -0.12 11.17 -0.12 13C-0.12 14.82 -0.13 16.64 -0.03 18.47C0.08 20.6 0.58 22.48 2.2 24.04C3.83 25.6 5.79 26.08 8 26.18C9.91 26.28 11.8 26.27 13.71 26.27C15.62 26.27 17.51 26.28 19.41 26.18C21.63 26.08 23.59 25.59 25.21 24.04C26.83 22.48 27.33 20.6 27.44 18.47C27.55 16.64 27.53 14.83 27.53 13ZM13.7 19.81C9.78 19.81 6.61 16.76 6.61 13C6.61 9.23 9.78 6.19 13.7 6.19C17.63 6.19 20.8 9.23 20.8 13C20.8 16.76 17.63 19.81 13.7 19.81ZM21.09 7.5C20.17 7.5 19.43 6.79 19.43 5.91C19.43 5.03 20.17 4.32 21.09 4.32C22 4.32 22.74 5.03 22.74 5.91C22.74 6.12 22.7 6.32 22.62 6.52C22.54 6.71 22.41 6.88 22.26 7.03C22.11 7.18 21.92 7.3 21.72 7.38C21.52 7.46 21.31 7.5 21.09 7.5Z" fill="#FFFFFF" fill-opacity="1.000000" fill-rule="nonzero"/>
</svg>
