<svg width="23.000000" height="17.000000" viewBox="0 0 23 17" fill="none" xmlns="http://www.w3.org/2000/svg" xmlns:xlink="http://www.w3.org/1999/xlink">
	<desc>
			Created with Pixso.
	</desc>
	<defs/>
	<path id="Vector" d="M23 16.29C23 16.48 22.92 16.64 22.78 16.78C22.64 16.92 22.47 17 22.28 17C22.08 17 21.91 16.92 21.77 16.78C21.63 16.64 21.56 16.48 21.56 16.29L21.56 6.97L13.63 10.89C13.03 11.18 12.32 11.33 11.5 11.33C10.67 11.33 9.96 11.18 9.36 10.89L0.87 6.7C0.29 6.41 0 6.06 0 5.65C0 5.24 0.29 4.9 0.87 4.62L9.36 0.44C9.96 0.14 10.67 0 11.5 0C12.32 0 13.03 0.14 13.63 0.44L22.12 4.62C22.63 4.87 22.91 5.18 22.97 5.55C22.99 5.57 23 5.6 23 5.64L23 16.29ZM14.35 12.3L18.68 10.16L18.68 13.28C18.68 13.91 17.98 14.45 16.58 14.9C15.18 15.35 13.49 15.58 11.5 15.58C9.5 15.58 7.81 15.35 6.41 14.9C5.01 14.45 4.31 13.91 4.31 13.28L4.31 10.16L8.64 12.3C9.24 12.6 10.19 12.75 11.5 12.75C12.8 12.75 13.75 12.6 14.35 12.3Z" fill="#FFFFFF" fill-opacity="1.000000" fill-rule="nonzero"/>
</svg>
