<svg width="1440.000000" height="88.000000" viewBox="0 0 1440 88" fill="none" xmlns="http://www.w3.org/2000/svg" xmlns:xlink="http://www.w3.org/1999/xlink">
	<desc>
			Created with Pixso.
	</desc>
	<defs/>
	<path id="waves" d="M1440 85.99L1433 71.62C1425 57.25 1411 28.73 1396 17.46C1382 6.41 1367 12.82 1353 19.01C1338 25.42 1324 31.83 1309 42.88C1295 54.15 1280 70.07 1265 63.66C1251 57.25 1236 28.73 1222 15.91C1207 3.09 1193 6.41 1178 19.01C1164 31.83 1149 54.15 1135 57.25C1120 60.57 1105 44.65 1091 39.79C1076 34.92 1062 41.33 1047 41.33C1033 41.33 1018 34.92 1004 42.88C989 50.84 975 73.17 960 68.52C945 63.66 931 31.83 916 28.73C902 25.42 887 50.84 873 52.61C858 54.15 844 31.83 829 19.01C815 6.41 800 3.09 785 11.05C771 19.01 756 38.24 742 46.2C727 54.15 713 50.84 698 46.2C684 41.33 669 34.92 655 31.83C640 28.73 625 28.73 611 36.69C596 44.65 582 60.57 567 65.21C553 70.07 538 63.66 524 60.57C509 57.25 495 57.25 480 54.15C465 50.84 451 44.65 436 36.69C422 28.73 407 19.01 393 28.73C378 38.24 364 66.76 349 79.58C335 92.4 320 89.08 305 79.58C291 70.07 276 54.15 262 55.7C247 57.25 233 76.48 218 74.71C204 73.17 189 50.84 175 38.24C160 25.42 145 22.32 131 20.77C116 19.01 102 19.01 87 30.28C73 41.33 58 63.66 44 66.76C29 70.07 15 54.15 7 46.2L0 38.24L0 0L7 0C15 0 29 0 44 0C58 0 73 0 87 0C102 0 116 0 131 0C145 0 160 0 175 3.05e-5C189 3.05e-5 204 3.05e-5 218 3.05e-5C233 3.05e-5 247 3.05e-5 262 3.05e-5C276 3.05e-5 291 3.05e-5 305 3.05e-5C320 3.05e-5 335 3.05e-5 349 3.05e-5C364 3.05e-5 378 3.05e-5 393 3.05e-5C407 3.05e-5 422 3.05e-5 436 3.05e-5C451 6.1e-5 465 6.1e-5 480 6.1e-5C495 6.1e-5 509 6.1e-5 524 6.1e-5C538 6.1e-5 553 6.1e-5 567 6.1e-5C582 6.1e-5 596 6.1e-5 611 6.1e-5C625 6.1e-5 640 6.1e-5 655 6.1e-5C669 6.1e-5 684 6.1e-5 698 6.1e-5C713 6.1e-5 727 6.1e-5 742 6.1e-5C756 6.1e-5 771 6.1e-5 785 6.1e-5C800 6.1e-5 815 6.1e-5 829 6.1e-5C844 6.1e-5 858 6.1e-5 873 9.15e-5C887 9.15e-5 902 9.15e-5 916 9.15e-5C931 9.15e-5 945 9.15e-5 960 9.15e-5C975 9.15e-5 989 9.15e-5 1004 9.15e-5C1018 9.15e-5 1033 9.15e-5 1047 9.15e-5C1062 9.15e-5 1076 9.15e-5 1091 9.15e-5C1105 9.15e-5 1120 9.15e-5 1135 0C1149 0 1164 0 1178 0C1193 0 1207 0 1222 0C1236 0 1251 0 1265 0C1280 0 1295 0 1309 0C1324 0 1338 0 1353 0C1367 0 1382 0 1396 0C1411 0 1425 0 1433 0L1440 0L1440 85.99Z" fill="#000000" fill-opacity="1.000000" fill-rule="evenodd"/>
	<path id="waves" d="M1433 71.62C1425 57.25 1411 28.73 1396 17.46C1382 6.41 1367 12.82 1353 19.01C1338 25.42 1324 31.83 1309 42.88C1295 54.15 1280 70.07 1265 63.66C1251 57.25 1236 28.73 1222 15.91C1207 3.09 1193 6.41 1178 19.01C1164 31.83 1149 54.15 1135 57.25C1120 60.57 1105 44.65 1091 39.79C1076 34.92 1062 41.33 1047 41.33C1033 41.33 1018 34.92 1004 42.88C989 50.84 975 73.17 960 68.52C945 63.66 931 31.83 916 28.73C902 25.42 887 50.84 873 52.61C858 54.15 844 31.83 829 19.01C815 6.41 800 3.09 785 11.05C771 19.01 756 38.24 742 46.2C727 54.15 713 50.84 698 46.2C684 41.33 669 34.92 655 31.83C640 28.73 625 28.73 611 36.69C596 44.65 582 60.57 567 65.21C553 70.07 538 63.66 524 60.57C509 57.25 495 57.25 480 54.15C465 50.84 451 44.65 436 36.69C422 28.73 407 19.01 393 28.73C378 38.24 364 66.76 349 79.58C335 92.4 320 89.08 305 79.58C291 70.07 276 54.15 262 55.7C247 57.25 233 76.48 218 74.71C204 73.17 189 50.84 175 38.24C160 25.42 145 22.32 131 20.77C116 19.01 102 19.01 87 30.28C73 41.33 58 63.66 44 66.76C29 70.07 15 54.15 7 46.2L0 38.24L0 0L7 0C15 0 29 0 44 0C58 0 73 0 87 0C102 0 116 0 131 0C145 0 160 0 175 3.05e-5C189 3.05e-5 204 3.05e-5 218 3.05e-5C233 3.05e-5 247 3.05e-5 262 3.05e-5C276 3.05e-5 291 3.05e-5 305 3.05e-5C320 3.05e-5 335 3.05e-5 349 3.05e-5C364 3.05e-5 378 3.05e-5 393 3.05e-5C407 3.05e-5 422 3.05e-5 436 3.05e-5C451 6.1e-5 465 6.1e-5 480 6.1e-5C495 6.1e-5 509 6.1e-5 524 6.1e-5C538 6.1e-5 553 6.1e-5 567 6.1e-5C582 6.1e-5 596 6.1e-5 611 6.1e-5C625 6.1e-5 640 6.1e-5 655 6.1e-5C669 6.1e-5 684 6.1e-5 698 6.1e-5C713 6.1e-5 727 6.1e-5 742 6.1e-5C756 6.1e-5 771 6.1e-5 785 6.1e-5C800 6.1e-5 815 6.1e-5 829 6.1e-5C844 6.1e-5 858 6.1e-5 873 9.15e-5C887 9.15e-5 902 9.15e-5 916 9.15e-5C931 9.15e-5 945 9.15e-5 960 9.15e-5C975 9.15e-5 989 9.15e-5 1004 9.15e-5C1018 9.15e-5 1033 9.15e-5 1047 9.15e-5C1062 9.15e-5 1076 9.15e-5 1091 9.15e-5C1105 9.15e-5 1120 9.15e-5 1135 0C1149 0 1164 0 1178 0C1193 0 1207 0 1222 0C1236 0 1251 0 1265 0C1280 0 1295 0 1309 0C1324 0 1338 0 1353 0C1367 0 1382 0 1396 0C1411 0 1425 0 1433 0L1440 0L1440 85.99L1433 71.62Z" stroke="#000000" stroke-opacity="1.000000" stroke-width="0.000000"/>
</svg>
